<?xml version="1.0"?>
<!-- Version barba-->
<svg xmlns="http://www.w3.org/2000/svg" xmlns:xlink="http://www.w3.org/1999/xlink" xmlns:xcs="https://www.xtool.com/pages/software" version="1.1" preserveAspectRatio="xMinYMin meet" width="62.77734184265138mm" height="100.8400993347168mm" viewBox="-39.03577804565431 -143.19117736816403 62.77734184265138 100.8400993347168" xcs:version="2.7.22"><style></style>
<path transform="matrix(1,0,0,1,0,0)" stroke="none" fill="#D4AF37" data-view-type="laser" d="M-30.51679240558761,-86.4309889899747C-30.830497893952007,-87.09019985216145 -30.51679240558761,-86.72025226828202 -32.0779847935805,-86.72025226828202C-33.63917718157336,-86.72025226828202 -33.307984793580495,-87.63028919738305 -33.45798479358048,-84.33028919738305C-33.60798479358047,-81.03028919738304 -39.90684630843289,-67.34379840952889 -29.004718482296987,-52.17644475926141C-17.946296729751843,-39.89006411084464 -1.4184996604264128,-38.26184616024499 9.873887469217841,-52.17644475926141C21.166274598862074,-66.0910433582778 18.306233144606473,-81.44708833172166 18.486442541538686,-83.88425207518982L18.194125193208734,-86.81283401280282C17.08412519320872,-86.76283401280278 15.919298606693026,-87.0128340128028 15.744125193208724,-87.0128340128028C15.568951779724408,-87.0128340128028 14.450870910196308,-84.85387101551305 14.140247915922949,-83.40082673980623C13.116151613788318,-79.99557465325864 9.476109907783297,-76.74761027203715 8.097671881786852,-76.10433919323881C7.821984276587564,-75.1394325750413 14.680628953689784,-74.15571498256182 10.84123564827108,-73.69029684371675C7.045919267318716,-73.76245746871834 4.3793734643630415,-76.88692052838147 1.1289794660050916,-78.42898231367982C-1.578417169462881,-80.2916527221156 -4.555256047152923,-80.59456951026567 -7.647107124328606,-78.89575773186758C-10.509556474903327,-80.52936933675899 -13.774718423814253,-80.04073994164608 -16.342404361252665,-78.46710754975885C-19.654175999840508,-76.90559686925886 -22.55603330443819,-74.13287523484756 -26.271712010185297,-73.62569118878619C-28.626817631695985,-73.57009677238162 -29.25799862271679,-73.99073422004426 -26.06859548818203,-74.66065847893843C-25.12141463661094,-74.86034778053266 -21.925084521022757,-75.5263553498144 -24.477220695242796,-77.05158547201704C-27.308356037443126,-79.55659180244665 -29.642175833338023,-82.69228994836405 -30.51679240558761,-86.4309889899747L-30.51679240558761,-86.4309889899747ZM-6.467938857476007,-74.7473430541645C-4.049220729397213,-72.54398151912822 -0.657453000333156,-71.86854054272017 2.330702264034649,-70.71187178195952C5.157004092994434,-70.26895154985387 8.832838828984954,-69.48783666845588 3.219685580947612,-68.82987045809926C-0.6324356161906266,-68.4310341818586 -3.1866346440113205,-69.76619563831609 -6.152916295899651,-71.17541965704713C-10.00870346617878,-72.48302613007583 -12.697154788017873,-67.8004233422219 -16.527473912155777,-68.6749214334059C-18.096668082106522,-68.62705717993427 -22.53311564351866,-69.58689196292575 -18.66729709984051,-70.43985412507806C-15.308457488674652,-71.76021662847693 -11.348830572254322,-72.26809256196671 -8.681179744175502,-74.86034778053266C-8.030053022371547,-75.41512018024059 -7.340834009373317,-75.59891191704011 -6.467938857476007,-74.7473430541645Z" fill-rule="nonzero"></path><path transform="matrix(1,0,0,1,0,0)" stroke="none" fill="#D2CBB9" data-view-type="laser" d="M-37.497625509691204,-101.05759177496404C-40.16347250969119,-99.66564477496405 -38.65517150969117,-95.70137677496405 -38.18333350969118,-93.33397877496402C-37.43013750969112,-91.57943177496402 -36.66987850969119,-87.29617477496407 -34.87773950969117,-87.44374977496403C-34.91151350969119,-90.64847577496401 -36.45337250969121,-93.19244092208287 -36.74884450969117,-96.32729092208288C-35.67047350969122,-97.58635392208286 -33.752143509691166,-101.13720477496405 -37.497625509691204,-101.05759177496404ZM-2.0684932198878414,-137.58845494719708C1.0015945608419372,-139.51058411541035 4.2978411475777705,-140.37506594979143 4.2978411475777705,-140.37506594979143C-11.75176475410538,-144.41295917552395 -11.75176475410538,-144.41295917552395 -22.067421509691172,-138.41848877496398C-25.423377509691193,-135.91263577496403 -27.62964850969118,-131.626372774964 -26.719775509691175,-127.39885177496399C-26.430408509691205,-126.26424677496404 -26.077724509691222,-123.34676777496404 -27.35146350969123,-125.84924577496403C-28.84946050969114,-129.794946774964 -27.590305509691206,-134.2659497749641 -24.73999050969124,-137.27278677496398C-23.714363509691168,-138.17639477496405 -21.8297145096912,-140.54727977496404 -24.700919509691204,-139.36458577496398C-35.76965176158197,-133.06626926689853 -33.234221509691224,-125.84924577496405 -34.584925509691175,-122.43354777496401C-34.975846411839115,-123.7139857255822 -35.40275573730469,-126.9139638204394 -36.04969550969119,-128.24359577496404C-38.18180350969118,-124.43367477496402 -38.932653509691164,-119.51067777496398 -36.74884450969117,-115.54804177496403C-36.07623250969118,-113.95752077496404 -40.413001509691156,-116.41479477496402 -38.47866250969122,-114.15616477496401C-34.788924509691185,-107.862584774964 -34.64675650969113,-100.35867277496403 -33.80903950969119,-93.30592277496403C-33.60852850969118,-91.25216877496403 -33.422814509691165,-89.19700977496404 -33.234221509691224,-87.14213377496404C-32.16203007838533,-86.85216767065565 -30.802594097916398,-87.140213972498 -30.801291401789967,-87.14213377496404C-30.217526378257105,-87.991596646441 -31.1901179329503,-90.14926208243759 -31.489813509691174,-91.48151677496404C-31.442015509691174,-93.47376177496403 -32.56179350969117,-96.53657377496403 -31.2765355096912,-97.96908977496403C-29.373199509691176,-95.34284377496398 -30.274723060176854,-90.59670577496402 -26.897001509691165,-89.30105377496406C-13.760553269420484,-85.29925732405212 -11.588449509691173,-91.911865774964 -9.92109650969121,-94.47727177496407C-8.84114450969119,-97.774957774964 -5.685934509691151,-96.44605377496401 -4.832558509691182,-93.81558077496403C-3.219551509691172,-91.11117277496403 0,-87.96684325690111 1.858214490308768,-87.96684325690109C5.259565490308802,-87.98370525690105 10.321664490308848,-87.736441774964 12.814877490308845,-90.59670577496405C14.620098490308777,-92.38158577496405 14.470468490308832,-96.79329677496399 16.416241490308806,-97.48791277496397C17.13686149030886,-94.09599677496404 15.951216490308752,-90.62510277496402 15.712641490308783,-87.28768777496406C16.484066603932717,-87.14597731223293 18.114125193208707,-86.97448837071292 18.204125193208654,-87.14213377496404C18.29412519320877,-87.30977917921521 18.363363767377393,-87.86221565981502 18.463806490308798,-88.55462777496403C18.988422490308807,-95.43413677496403 19.619389490308777,-102.32174777496404 21.24552049030885,-109.04512077496402C21.91653649030883,-113.19950577496398 23.5342874903088,-117.63291077496403 22.002145490308834,-121.76921777496399C21.285481490308854,-125.61014677496397 19.432545490308797,-120.89315477496403 18.83690249030886,-121.18627777496401C19.687930672624617,-124.46371195222122 19.876230856119832,-123.96157812956727 20.31786349030881,-129.713953774964C8.17023611550033,-132.15263611160935 6.789368103202037,-129.51643354267628 1.858214490308768,-124.88266477496401C2.5519664903088426,-127.68277777496404 4.9241434903087224,-130.16698677496402 7.642182490308841,-131.2093237749641C11.211732490308833,-132.66024477496404 15.133891490308741,-131.91517777496404 18.81513549030882,-131.805610774964C16.970384490308845,-134.317427774964 13.644656490308819,-135.366627774964 10.798349490308823,-136.40869577496397C5.258323108965925,-138.9865230340138 -7.28546292760177,-135.4944800348228 -13.961471509691222,-124.93834377496404C-13.961471509691222,-124.93834377496404 -12.946410770245649,-130.78838989909468 -2.0684932198878414,-137.58845494719708ZM-19.083376509691163,-117.246596774964C-12.918050509691199,-116.04744277496404 -6.572641509691181,-116.45011777496401 -0.3317945096911501,-116.61169177496399C4.19980449030885,-116.764670774964 8.539663490308783,-118.126930774964 12.844298490308859,-119.414091774964C13.26890849030886,-116.54378577496401 13.287017490308756,-113.520008774964 14.207910490308876,-110.69066777496403C14.84158249030881,-107.79867777496398 16.41624149030875,-104.46490749876533 16.257156490308773,-102.03098877496403C1.4167977827119174,-106.05952521312581 -5.409603048920685,-100.74653077496399 -7.367223426440042,-100.74653077496401C-9.324843803959398,-100.74653077496404 -22.067421509691172,-106.64167773435136 -31.495416509691182,-101.72524877496402C-31.2765355096912,-106.74561992954074 -28.050215509691185,-112.97718077496404 -27.970573509691178,-118.89025777496404C-28.19904950969118,-120.42417477496399 -26.363531509691228,-118.91633277496405 -25.550580509691173,-118.91547077496402C-23.42492050969119,-118.25105877496401 -21.257958509691207,-117.72342077496403 -19.083376509691163,-117.246596774964ZM13.341814490308792,-97.45087977496401C12.922784490308771,-94.801892774964 12.342098490308842,-91.11072277496406 9.200211490308845,-90.49676577496403C5.997520490308801,-89.97251577496402 -2.87867836461362,-87.01283264160153 -4.166490509691158,-98.35342177496399C-0.21719750969117513,-101.02520177496403 4.927319490308832,-100.737695774964 9.47161449030878,-100.23934477496407C10.26769349030883,-100.11017477496402 14.207910490308734,-100.24173577496403 13.341814490308792,-97.45087977496401ZM-15.479370509691222,-100.09284177496401C-12.237680509691216,-99.85562316976478 -9.3522669805607,-97.2197879644585 -11.80631350969125,-94.064220774964C-17.06285950969115,-88.38418277496406 -25.227107509691166,-89.30105377496406 -27.100613509691243,-92.66626177496403C-28.236867936712002,-95.24402679386363 -30.0905917858899,-100.078990774964 -25.536906509691164,-100.24173577496403C-22.222885509691224,-100.75046777496401 -18.72564555733655,-100.43614335845025 -15.479370509691222,-100.09284177496401ZM21.161234490308857,-100.74653077496403C18.290491490308824,-98.597783774964 23.681297490308765,-96.26051977496402 21.474062490308825,-93.50866577496407C21.2577194903088,-91.95261277496404 19.248324490308818,-87.65774677496401 20.473353490308824,-87.41605977496408C22.596646490308785,-91.19194977496403 24.55780549030885,-95.68169877496408 23.39511849030876,-100.078990774964C23.15263049030878,-101.12594377496403 21.946248490308705,-101.30434377496401 21.161234490308857,-100.74653077496403Z" fill-rule="evenodd"></path></svg>
