<?xml version="1.0"?>
<!-- Created with xTool Creative Space (https://www.xtool.com/pages/software) -->
<svg xmlns="http://www.w3.org/2000/svg" xmlns:xlink="http://www.w3.org/1999/xlink" xmlns:xcs="https://www.xtool.com/pages/software" version="1.1" preserveAspectRatio="xMinYMin meet" width="62.77734184265135mm" height="100.84009933471678mm" viewBox="-39.0357780456543 -143.19117736816403 62.77734184265135 100.84009933471678" xcs:version="2.7.22"><style></style>
<path transform="matrix(1,0,0,1,0,1.42109e-14)" stroke="none" fill="#D4AF37" data-view-type="laser" d="M-30.826180045654347,-87.01283436816412C-30.97761447983506,-87.01283436816412 -33.12013471091614,-86.96257836816412 -33.290134710916135,-86.92257836816411C-33.46013471091614,-86.88257836816413 -38.37308269888316,-65.20998269174727 -29.00471804565433,-52.17644436816411C-17.94629704565432,-39.890064368164126 -1.4185000456543264,-38.26184636816413 9.873887954345662,-52.17644436816411C21.166274954345653,-66.09104336816412 18.30623295434569,-81.44708836816412 18.486442954345677,-83.88425236816411L18.204124954345673,-87.10257836816412C17.09412495434566,-87.05257836816412 15.887815954345712,-87.28768736816413 15.712641954345694,-87.28768736816413C15.537468954345684,-87.28768736816413 14.450870954345646,-84.85387136816414 14.14024795434569,-83.4008263681641C13.11615195434567,-79.99557436816413 9.476109954345645,-76.74761036816412 8.097671954345685,-76.10433936816413C7.82198395434569,-75.13943236816414 14.680628954345687,-74.15571536816415 10.841235954345677,-73.69029636816413C7.045918954345673,-73.76245736816414 4.379373954345681,-76.88692036816411 1.1289799543456747,-78.42898236816413C-1.5784170456543336,-80.29165236816414 -4.555256045654318,-80.59456936816412 -7.647107045654339,-78.89575736816413C-10.509556045654335,-80.52936936816411 -13.77471804565434,-80.04074036816414 -16.34240404565432,-78.46710736816414C-19.65417604565434,-76.90559736816414 -22.556033045654317,-74.13287536816414 -26.27171204565434,-73.62569136816413C-28.626818045654318,-73.57009636816412 -29.25799904565433,-73.99073436816413 -26.06859504565432,-74.66065836816414C-25.12141504565433,-74.86034736816414 -21.92508404565433,-75.52635536816412 -24.477221045654332,-77.05158536816413C-27.308356045654328,-79.55659136816415 -30.580749810018375,-86.64123894795956 -30.826180045654347,-87.01283436816412ZM-6.467939045654335,-74.74734336816412C-4.0492210456543205,-72.54398136816414 -0.6574530456543357,-71.86854036816413 2.3307019543456713,-70.71187136816413C5.157003954345676,-70.26895136816414 8.832838954345647,-69.48783636816414 3.2196859543456573,-68.82987036816414C-0.6324360456543161,-68.43103436816412 -3.1866350456543273,-69.76619536816412 -6.152916045654338,-71.17541936816411C-10.008703045654329,-72.48302636816413 -12.69715504565434,-67.80042336816413 -16.527474045654316,-68.67492136816415C-18.096668045654326,-68.62705736816412 -22.533116045654324,-69.58689236816411 -18.667297045654323,-70.43985436816412C-15.308457045654341,-71.76021636816412 -11.348831045654327,-72.26809236816413 -8.681180045654314,-74.86034736816414C-8.030053045654313,-75.41512036816414 -7.340834045654333,-75.59891236816412 -6.467939045654335,-74.74734336816412ZM-37.49762504565432,-101.05759136816411C-40.16347204565433,-99.66564436816414 -38.655171045654335,-95.70137636816415 -38.18333304565433,-93.33397836816411C-37.43013704565432,-91.57943136816412 -36.669878045654336,-87.29617436816412 -34.87773904565433,-87.4437493681641C-34.91151304565434,-90.64847536816413 -36.453372045654326,-93.19244136816413 -36.74884404565432,-96.32729136816411C-35.67047304565432,-97.58635436816411 -33.752143045654336,-101.13720436816412 -37.49762504565432,-101.05759136816411ZM-2.0684930456543213,-137.5884553681641C1.0015949543456486,-139.51058436816413 4.2978409543456735,-140.37506636816414 4.2978409543456735,-140.37506636816414C-11.75176504565434,-144.4129593681641 -11.75176504565434,-144.4129593681641 -22.067421045654342,-138.4184883681641C-25.42337704565432,-135.9126353681641 -27.62964804565432,-131.62637236816414 -26.719775045654337,-127.39885136816412C-26.43040804565433,-126.26424636816412 -26.077724045654335,-123.34676736816414 -27.351463045654327,-125.8492453681641C-28.84946004565431,-129.79494636816415 -27.590305045654333,-134.26594936816417 -24.739990045654324,-137.27278636816413C-23.714363045654324,-138.1763943681641 -21.829714045654327,-140.54727936816414 -24.700919045654338,-139.3645853681641C-35.76965204565433,-133.06626936816414 -33.23422104565432,-125.8492453681641 -34.58492504565433,-122.43354736816411C-34.975846045654336,-123.71398536816415 -35.40275604565433,-126.91396336816415 -36.04969504565432,-128.24359536816414C-38.18180304565433,-124.4336743681641 -38.93265304565432,-119.5106773681641 -36.74884404565432,-115.54804136816409C-36.07623204565434,-113.95752036816413 -40.41300104565433,-116.41479436816408 -38.47866204565432,-114.15616436816413C-34.788924045654326,-107.86258436816411 -34.64675604565434,-100.35867236816412 -33.80903904565433,-93.30592236816409C-33.608528045654325,-91.25216836816415 -33.47872771091613,-88.97745436816415 -33.290134710916135,-86.92257836816411C-33.33389871091614,-86.92257836816411 -30.87744304565433,-87.04309036816412 -30.826180045654347,-87.01283436816412C-30.774916045654322,-86.98257836816411 -31.19011804565433,-90.14926236816412 -31.48981304565433,-91.48151636816414C-31.44201504565433,-93.47376136816416 -32.561793045654326,-96.53657336816411 -31.276535045654327,-97.96908936816415C-29.37319904565433,-95.34284336816411 -30.274723045654326,-90.59670536816411 -26.89700104565432,-89.30105336816413C-13.760553045654321,-85.29925736816412 -11.588449045654327,-91.91186536816411 -9.92109604565434,-94.47727136816417C-8.841144045654346,-97.7749573681641 -5.685934045654335,-96.44605336816412 -4.832558045654338,-93.81558036816409C-3.2195510456543275,-91.1111723681641 -4.5654331870537135e-8,-87.9668433681641 1.8582149543456703,-87.9668433681641C5.259565954345669,-87.98370536816411 10.321664954345685,-87.7364413681641 12.814877954345683,-90.59670536816411C14.620098954345679,-92.3815853681641 14.470468954345677,-96.7932963681641 16.41624195434565,-97.48791236816413C17.136861954345676,-94.0959963681641 15.951216954345655,-90.62510236816415 15.712641954345694,-87.28768736816409C17.127830474814765,-87.0905888849059 18.204124954345673,-87.0934820769591 18.20881756657387,-87.09348207695915C18.213510178802082,-87.09348207695916 18.363363954345687,-87.86221536816412 18.46380695434567,-88.55462736816412C18.98842295434565,-95.43413636816413 19.619389954345678,-102.32174736816414 21.245520954345665,-109.0451203681641C21.916536954345673,-113.19950536816413 23.534287954345643,-117.63291036816409 22.00214595434568,-121.7692173681641C21.28548195434567,-125.61014636816412 19.43254595434567,-120.8931543681641 18.836902954345675,-121.18627736816413C19.687930954345667,-124.4637123681641 19.876230954345687,-123.96157836816414 20.317863954345682,-129.71395336816417C8.170235954345678,-132.15263636816408 6.789367954345664,-129.5164333681641 1.8582149543456703,-124.88266436816409C2.5519669543456596,-127.68277736816412 4.924143954345681,-130.16698636816415 7.64218295434568,-131.20932336816412C11.211732954345642,-132.66024436816411 15.133891954345673,-131.91517736816408 18.815135954345664,-131.8056103681641C16.97038495434569,-134.31742736816418 13.644656954345665,-135.3666273681641 10.798349954345696,-136.4086953681641C5.258322954345658,-138.98652336816406 -7.285463045654323,-135.49448036816412 -13.961471045654323,-124.93834336816408C-13.961471045654323,-124.93834336816408 -12.946411045654317,-130.78839036816413 -2.0684930456543213,-137.5884553681641ZM-19.08337604565432,-117.24659636816413C-12.918050045654327,-116.04744236816413 -6.572641045654336,-116.45011736816411 -0.331794045654334,-116.61169136816407C4.199804954345666,-116.7646703681641 8.539663954345684,-118.12693036816414 12.844298954345675,-119.41409136816411C13.268908954345676,-116.54378536816412 13.287017954345686,-113.5200083681641 14.207910954345664,-110.6906673681641C14.841582954345647,-107.7986773681641 16.41624195434565,-104.46490736816412 16.257156954345675,-102.03098836816412C1.41679795434569,-106.05952536816412 -5.59339504565432,-100.7465303681641 -7.55101504565431,-100.7465303681641C-9.50863504565433,-100.7465303681641 -22.067421045654342,-106.64167736816408 -31.495416045654324,-101.72524836816416C-31.276535045654327,-106.74562036816414 -28.050215045654312,-112.97718036816411 -27.970573045654334,-118.8902573681641C-28.19904904565432,-120.4241743681641 -26.36353104565434,-118.91633236816412 -25.55058004565433,-118.91547036816415C-23.424920045654332,-118.25105836816411 -21.257958045654334,-117.72342036816414 -19.08337604565432,-117.24659636816413ZM13.341814954345665,-97.45087936816415C12.922784954345673,-94.80189236816409 12.342098954345659,-91.1107223681641 9.20021195434569,-90.49676536816412C5.997520954345674,-89.97251536816411 -2.8786780456543397,-87.0128323681641 -4.166490045654342,-98.35342136816413C-0.2171970456543022,-101.02520136816412 4.927319954345677,-100.73769536816408 9.471614954345675,-100.23934436816408C10.267693954345667,-100.11017436816411 14.207910954345664,-100.24173536816411 13.341814954345665,-97.45087936816415ZM-15.479370045654322,-100.09284136816413C-12.237680045654317,-99.85562336816412 -9.352267045654317,-97.21978836816409 -11.806313045654319,-94.06422036816413C-17.062859045654307,-88.38418236816412 -25.22710704565432,-89.30105336816413 -27.10061304565434,-92.66626136816416C-28.236868045654333,-95.24402636816413 -30.09059204565434,-100.07899036816416 -25.53690604565432,-100.24173536816411C-22.222885045654323,-100.75046736816412 -18.725646045654322,-100.43614336816411 -15.479370045654322,-100.09284136816413ZM21.161234954345673,-100.7465303681641C18.29049195434567,-98.59778336816414 23.681297954345638,-96.26051936816411 21.474062954345662,-93.50866536816412C21.257719954345674,-91.95261236816413 19.24832495434569,-87.65774636816411 20.47335395434567,-87.41605936816408C22.596646954345687,-91.1919493681641 24.557805954345667,-95.68169836816412 23.39511895434569,-100.07899036816416C23.152630954345682,-101.12594336816409 21.94624895434569,-101.30434336816413 21.161234954345673,-100.7465303681641Z" fill-rule="evenodd"></path></svg>